M48
;Layer_Color=9474304
;FILE_FORMAT=4:3
METRIC,LZ
;TYPE=PLATED
T1F00S00C0.850
T2F00S00C0.900
T3F00S00C1.020
T4F00S00C1.100
%
T01
X0021717Y0003755
X0030353Y0003628
Y0012628
X0030535Y0016129
X0021535
X0021717Y0012755
X0013771Y0024765
Y0032512
X0004771
Y0024765
Y0041021
X0004517Y0049784
X0004644Y0059055
X0013644
X0013153Y0063373
X0022153
X0013517Y0049784
X0013771Y0041021
T02
X0047538Y0037592
X0050038
X0052538
X0045038
X0035433Y0037211
Y0034671
Y0032131
Y0029591
Y0027051
Y0024511
Y0021971
X0027813
Y0024511
Y0027051
Y0029591
Y0032131
Y0034671
Y0037211
Y0039751
Y0042291
Y0044831
Y0047371
Y0049911
Y0052451
Y0054991
X0035433
Y0052451
Y0049911
Y0047371
Y0044831
Y0042291
Y0039751
X0044871Y005461
X0047371
X0049871
X0052371
T03
X0048133Y0008509
Y0011049
Y0015494
Y0018034
Y0022606
Y0025146
X0019939Y0029464
Y0032004
X0004191Y001778
Y001524
X0004318Y0008128
Y0005588
X0019812Y0038481
Y0041021
X0019685Y0047117
Y0049657
Y0056261
Y0058801
T04
X00127Y0012065
Y0014605
Y0017145
M30
