G04*
G04 #@! TF.GenerationSoftware,Altium Limited,Altium Designer,22.1.2 (22)*
G04*
G04 Layer_Color=16711935*
%FSLAX43Y43*%
%MOMM*%
G71*
G04*
G04 #@! TF.SameCoordinates,C0918504-A1FE-4B7F-BD87-C0AB04C77FA1*
G04*
G04*
G04 #@! TF.FilePolarity,Positive*
G04*
G01*
G75*
%ADD37C,0.100*%
D37*
X29423Y54981D02*
G03*
X29423Y54981I-500J0D01*
G01*
X18669Y28004D02*
X21209D01*
X18669D02*
Y33464D01*
X21209D01*
Y28004D02*
Y33464D01*
X28023Y21081D02*
Y55881D01*
X35223Y21081D02*
Y55881D01*
X28023D02*
X35223D01*
X28023Y21081D02*
X35223D01*
X14503Y62173D02*
Y64573D01*
X20803D01*
X14503Y62173D02*
X20803D01*
Y64573D01*
X2921Y13780D02*
X5461D01*
X2921D02*
Y19240D01*
X5461D01*
Y13780D02*
Y19240D01*
X3048Y4128D02*
X5588D01*
X3048D02*
Y9588D01*
X5588D01*
Y4128D02*
Y9588D01*
X6121Y23565D02*
Y25965D01*
X12421D01*
X6121Y23565D02*
X12421D01*
Y25965D01*
X12294Y57855D02*
Y60255D01*
X5994Y57855D02*
X12294D01*
X5994Y60255D02*
X12294D01*
X5994Y57855D02*
Y60255D01*
X14450Y9405D02*
Y19805D01*
X9850Y9405D02*
X14450D01*
X9850Y9405D02*
Y19805D01*
X14450D01*
X11150Y9405D02*
Y19805D01*
X18415Y54801D02*
X20955D01*
X18415D02*
Y60261D01*
X20955D01*
Y54801D02*
Y60261D01*
X29185Y14929D02*
Y17329D01*
X22885Y14929D02*
X29185D01*
X22885Y17329D02*
X29185D01*
X22885Y14929D02*
Y17329D01*
X20517Y11405D02*
X22917D01*
Y5105D02*
Y11405D01*
X20517Y5105D02*
Y11405D01*
Y5105D02*
X22917D01*
X29153Y11278D02*
X31553D01*
Y4978D02*
Y11278D01*
X29153Y4978D02*
Y11278D01*
Y4978D02*
X31553D01*
X46863Y12509D02*
X49403D01*
Y7049D02*
Y12509D01*
X46863Y7049D02*
X49403D01*
X46863D02*
Y12509D01*
Y19494D02*
X49403D01*
Y14034D02*
Y19494D01*
X46863Y14034D02*
X49403D01*
X46863D02*
Y19494D01*
Y26606D02*
X49403D01*
Y21146D02*
Y26606D01*
X46863Y21146D02*
X49403D01*
X46863D02*
Y26606D01*
X18542Y37021D02*
X21082D01*
X18542D02*
Y42481D01*
X21082D01*
Y37021D02*
Y42481D01*
X18415Y45657D02*
X20955D01*
X18415D02*
Y51117D01*
X20955D01*
Y45657D02*
Y51117D01*
X12167Y48584D02*
Y50984D01*
X5867Y48584D02*
X12167D01*
X5867Y50984D02*
X12167D01*
X5867Y48584D02*
Y50984D01*
X12421Y39821D02*
Y42221D01*
X6121Y39821D02*
X12421D01*
X6121Y42221D02*
X12421D01*
X6121Y39821D02*
Y42221D01*
X12421Y31312D02*
Y33712D01*
X6121Y31312D02*
X12421D01*
X6121Y33712D02*
X12421D01*
X6121Y31312D02*
Y33712D01*
X42588Y46792D02*
X54988D01*
X42588Y35292D02*
Y46792D01*
Y35292D02*
X54988D01*
Y46792D01*
X42421Y63810D02*
X54821D01*
X42421Y52310D02*
Y63810D01*
Y52310D02*
X54821D01*
Y63810D01*
M02*
