G04*
G04 #@! TF.GenerationSoftware,Altium Limited,Altium Designer,22.1.2 (22)*
G04*
G04 Layer_Color=255*
%FSLAX43Y43*%
%MOMM*%
G71*
G04*
G04 #@! TF.SameCoordinates,C0918504-A1FE-4B7F-BD87-C0AB04C77FA1*
G04*
G04*
G04 #@! TF.FilePolarity,Positive*
G04*
G01*
G75*
%ADD26R,1.550X1.550*%
%ADD27C,1.550*%
%ADD28R,1.500X1.500*%
%ADD29C,1.500*%
%ADD30R,1.350X1.350*%
%ADD31C,1.350*%
%ADD32C,1.700*%
%ADD33R,1.700X1.700*%
%ADD34R,1.350X1.350*%
%ADD35C,1.400*%
%ADD36R,1.400X1.400*%
D26*
X19939Y32004D02*
D03*
X4191Y17780D02*
D03*
X4318Y8128D02*
D03*
X19685Y58801D02*
D03*
X48133Y8509D02*
D03*
Y15494D02*
D03*
Y22606D02*
D03*
X19812Y41021D02*
D03*
X19685Y49657D02*
D03*
D27*
X19939Y29464D02*
D03*
X4191Y15240D02*
D03*
X4318Y5588D02*
D03*
X19685Y56261D02*
D03*
X48133Y11049D02*
D03*
Y18034D02*
D03*
Y25146D02*
D03*
X19812Y38481D02*
D03*
X19685Y47117D02*
D03*
D28*
X27813Y54991D02*
D03*
D29*
Y52451D02*
D03*
Y49911D02*
D03*
Y47371D02*
D03*
Y44831D02*
D03*
Y42291D02*
D03*
Y39751D02*
D03*
Y37211D02*
D03*
Y34671D02*
D03*
Y32131D02*
D03*
Y29591D02*
D03*
Y27051D02*
D03*
Y24511D02*
D03*
Y21971D02*
D03*
X35433Y54991D02*
D03*
Y52451D02*
D03*
Y49911D02*
D03*
Y47371D02*
D03*
Y44831D02*
D03*
Y42291D02*
D03*
Y39751D02*
D03*
Y37211D02*
D03*
Y34671D02*
D03*
Y32131D02*
D03*
Y29591D02*
D03*
Y27051D02*
D03*
Y24511D02*
D03*
Y21971D02*
D03*
D30*
X13153Y63373D02*
D03*
X13771Y24765D02*
D03*
X4644Y59055D02*
D03*
X21535Y16129D02*
D03*
X4517Y49784D02*
D03*
X4771Y41021D02*
D03*
Y32512D02*
D03*
D31*
X22153Y63373D02*
D03*
X4771Y24765D02*
D03*
X13644Y59055D02*
D03*
X30535Y16129D02*
D03*
X21717Y12755D02*
D03*
X30353Y12628D02*
D03*
X13517Y49784D02*
D03*
X13771Y41021D02*
D03*
Y32512D02*
D03*
D32*
X12700Y17145D02*
D03*
Y14605D02*
D03*
D33*
Y12065D02*
D03*
D34*
X21717Y3755D02*
D03*
X30353Y3628D02*
D03*
D35*
X47538Y37592D02*
D03*
X50038D02*
D03*
X45038D02*
D03*
X47371Y54610D02*
D03*
X49871D02*
D03*
X44871D02*
D03*
D36*
X52538Y37592D02*
D03*
X52371Y54610D02*
D03*
M02*
