G04*
G04 #@! TF.GenerationSoftware,Altium Limited,Altium Designer,22.1.2 (22)*
G04*
G04 Layer_Physical_Order=1*
G04 Layer_Color=255*
%FSLAX43Y43*%
%MOMM*%
G71*
G04*
G04 #@! TF.SameCoordinates,C0918504-A1FE-4B7F-BD87-C0AB04C77FA1*
G04*
G04*
G04 #@! TF.FilePolarity,Positive*
G04*
G01*
G75*
%ADD25C,0.381*%
%ADD26R,1.550X1.550*%
%ADD27C,1.550*%
%ADD28R,1.500X1.500*%
%ADD29C,1.500*%
%ADD30R,1.350X1.350*%
%ADD31C,1.350*%
%ADD32C,1.700*%
%ADD33R,1.700X1.700*%
%ADD34R,1.350X1.350*%
%ADD35C,1.400*%
%ADD36R,1.400X1.400*%
D25*
X37035Y55704D02*
X46277D01*
X47371Y54610D01*
X36536Y55205D02*
X37035Y55704D01*
X35433Y54991D02*
X35647Y55205D01*
X36536D01*
X35433Y52070D02*
X35814Y52451D01*
X42712D02*
X44871Y54610D01*
X35814Y52451D02*
X42712D01*
X47371Y50673D02*
Y54610D01*
Y50673D02*
X47752Y50292D01*
X35433Y52070D02*
Y52451D01*
X4644Y59055D02*
X4699Y59000D01*
Y49966D02*
Y59000D01*
X4517Y49784D02*
X4699Y49966D01*
X4318Y32512D02*
Y40568D01*
X4548Y49784D02*
X4771Y49561D01*
Y41021D02*
Y49561D01*
X4517Y49784D02*
X4548D01*
X4318Y40568D02*
X4771Y41021D01*
X4318Y32512D02*
X4771D01*
X4572Y24892D02*
X4771Y25091D01*
Y32512D01*
X4699Y24765D02*
X4771D01*
X4572Y24892D02*
X4699Y24765D01*
X13771Y32512D02*
X19431D01*
X19939Y32004D01*
X19558Y41021D02*
X19812Y40767D01*
X13771Y41021D02*
X19558D01*
X19812Y40767D02*
Y41021D01*
X19177Y49784D02*
X19558Y49403D01*
X13517Y49784D02*
X19177D01*
X19558Y49403D02*
X19685Y49530D01*
Y49657D01*
X19304Y59055D02*
X19431Y59182D01*
X13644Y59055D02*
X19304D01*
X19685Y58801D02*
Y58928D01*
X19431Y59182D02*
X19685Y58928D01*
X8962Y63373D02*
X13153D01*
X4644Y59055D02*
X8962Y63373D01*
X27559Y55245D02*
X28067D01*
X22153Y63373D02*
X27253Y58272D01*
Y55550D02*
X27559Y55245D01*
X27253Y55550D02*
Y58272D01*
X27813Y54991D02*
X28067Y55245D01*
X19685Y58801D02*
X26035Y52451D01*
X27813D01*
X19939Y49911D02*
X27813D01*
X19685Y49657D02*
X19939Y49911D01*
X27447Y47005D02*
Y47356D01*
X21463Y41021D02*
X27447Y47005D01*
X27432Y47371D02*
X27447Y47356D01*
X19812Y41021D02*
X21463D01*
X27432Y47371D02*
X27813D01*
X22136Y34201D02*
X22263D01*
X19939Y32004D02*
X22136Y34201D01*
X22263D02*
X23876Y35814D01*
Y40894D01*
X27813Y44831D01*
X27686Y40132D02*
X27813Y40005D01*
Y39751D02*
Y40005D01*
X35433Y34671D02*
X47117D01*
X50038Y37592D01*
X38354Y32131D02*
X47294Y23191D01*
X35433Y32131D02*
X38354D01*
X35433Y34671D02*
Y37211D01*
X28330Y39537D02*
X28370Y39497D01*
X33147D01*
X35433Y37211D01*
X27813Y39497D02*
X27853Y39537D01*
X28330D01*
X27813Y39497D02*
Y39751D01*
X47752Y22733D02*
Y22987D01*
X47549Y23191D02*
X47752Y22987D01*
X47294Y23191D02*
X47549D01*
X47752Y22733D02*
X47879Y22606D01*
X48133D01*
X35433Y27051D02*
X41598Y20886D01*
Y15044D02*
Y20886D01*
Y15044D02*
X47625Y9017D01*
Y8636D02*
Y9017D01*
X47752Y8509D02*
X48133D01*
X47625Y8636D02*
X47752Y8509D01*
X4191Y8255D02*
Y15240D01*
Y8255D02*
X4318Y8128D01*
X4771Y24765D02*
X4925D01*
X4318Y5588D02*
X6223D01*
X4925Y24765D02*
X12545Y17145D01*
X6223Y5588D02*
X12700Y12065D01*
X12545Y17145D02*
X12700D01*
X14564Y15281D01*
Y6995D02*
Y15281D01*
Y6995D02*
X19400Y2159D01*
X21717Y12755D02*
Y15947D01*
X30353Y12628D02*
X30535D01*
X30444Y12863D02*
Y16038D01*
X30535Y16129D01*
X30444Y12863D02*
X30607Y12700D01*
X30535Y12628D02*
X30607Y12700D01*
X19400Y2159D02*
X46609D01*
X50038Y5588D01*
X48133Y11049D02*
X50038Y12954D01*
Y5588D02*
Y12954D01*
Y37592D01*
X12597Y62889D02*
X12668D01*
X13153Y63373D01*
X44704Y44882D02*
X45038Y44548D01*
Y37592D02*
Y44548D01*
X47538Y37592D02*
Y43973D01*
X47752Y44187D01*
Y50292D01*
X49954Y38063D02*
Y54527D01*
X50038Y37592D02*
Y37713D01*
X49954Y38063D02*
X50171Y37846D01*
X50038Y37713D02*
X50171Y37846D01*
X44704Y44882D02*
Y51562D01*
X44871Y51729D01*
Y54610D01*
X49871D02*
X49954Y54527D01*
D26*
X19939Y32004D02*
D03*
X4191Y17780D02*
D03*
X4318Y8128D02*
D03*
X19685Y58801D02*
D03*
X48133Y8509D02*
D03*
Y15494D02*
D03*
Y22606D02*
D03*
X19812Y41021D02*
D03*
X19685Y49657D02*
D03*
D27*
X19939Y29464D02*
D03*
X4191Y15240D02*
D03*
X4318Y5588D02*
D03*
X19685Y56261D02*
D03*
X48133Y11049D02*
D03*
Y18034D02*
D03*
Y25146D02*
D03*
X19812Y38481D02*
D03*
X19685Y47117D02*
D03*
D28*
X27813Y54991D02*
D03*
D29*
Y52451D02*
D03*
Y49911D02*
D03*
Y47371D02*
D03*
Y44831D02*
D03*
Y42291D02*
D03*
Y39751D02*
D03*
Y37211D02*
D03*
Y34671D02*
D03*
Y32131D02*
D03*
Y29591D02*
D03*
Y27051D02*
D03*
Y24511D02*
D03*
Y21971D02*
D03*
X35433Y54991D02*
D03*
Y52451D02*
D03*
Y49911D02*
D03*
Y47371D02*
D03*
Y44831D02*
D03*
Y42291D02*
D03*
Y39751D02*
D03*
Y37211D02*
D03*
Y34671D02*
D03*
Y32131D02*
D03*
Y29591D02*
D03*
Y27051D02*
D03*
Y24511D02*
D03*
Y21971D02*
D03*
D30*
X13153Y63373D02*
D03*
X13771Y24765D02*
D03*
X4644Y59055D02*
D03*
X21535Y16129D02*
D03*
X4517Y49784D02*
D03*
X4771Y41021D02*
D03*
Y32512D02*
D03*
D31*
X22153Y63373D02*
D03*
X4771Y24765D02*
D03*
X13644Y59055D02*
D03*
X30535Y16129D02*
D03*
X21717Y12755D02*
D03*
X30353Y12628D02*
D03*
X13517Y49784D02*
D03*
X13771Y41021D02*
D03*
Y32512D02*
D03*
D32*
X12700Y17145D02*
D03*
Y14605D02*
D03*
D33*
Y12065D02*
D03*
D34*
X21717Y3755D02*
D03*
X30353Y3628D02*
D03*
D35*
X47538Y37592D02*
D03*
X50038D02*
D03*
X45038D02*
D03*
X47371Y54610D02*
D03*
X49871D02*
D03*
X44871D02*
D03*
D36*
X52538Y37592D02*
D03*
X52371Y54610D02*
D03*
M02*
