G04*
G04 #@! TF.GenerationSoftware,Altium Limited,Altium Designer,22.1.2 (22)*
G04*
G04 Layer_Color=65535*
%FSLAX43Y43*%
%MOMM*%
G71*
G04*
G04 #@! TF.SameCoordinates,C0918504-A1FE-4B7F-BD87-C0AB04C77FA1*
G04*
G04*
G04 #@! TF.FilePolarity,Positive*
G04*
G01*
G75*
%ADD10C,0.200*%
%ADD11C,0.250*%
%ADD12C,0.600*%
%ADD13C,0.254*%
D10*
X30988Y55881D02*
G03*
X32258Y55881I635J0D01*
G01*
X18669Y28004D02*
X21209D01*
X18669D02*
Y33464D01*
X21209D01*
Y28004D02*
Y33464D01*
X28973Y21081D02*
Y55881D01*
X34273Y21081D02*
Y55881D01*
X28973D02*
X30988D01*
X32258D02*
X34273D01*
X28973Y21081D02*
X34273D01*
X14503Y62173D02*
X20803D01*
X14503Y64573D02*
X20803D01*
X14503Y64047D02*
Y64573D01*
X20803Y62173D02*
Y62699D01*
X14503Y62173D02*
Y62699D01*
X20803Y64047D02*
Y64573D01*
X2921Y13780D02*
X5461D01*
X2921D02*
Y19240D01*
X5461D01*
Y13780D02*
Y19240D01*
X3048Y4128D02*
X5588D01*
X3048D02*
Y9588D01*
X5588D01*
Y4128D02*
Y9588D01*
X6121Y23565D02*
Y24091D01*
X12421Y25439D02*
Y25965D01*
X6121Y25439D02*
Y25965D01*
X12421Y23565D02*
Y24091D01*
X6121Y23565D02*
X12421D01*
X6121Y25965D02*
X12421D01*
X12294Y59729D02*
Y60255D01*
X5994Y57855D02*
Y58381D01*
X12294Y57855D02*
Y58381D01*
X5994Y59729D02*
Y60255D01*
X12294D01*
X5994Y57855D02*
X12294D01*
X10350Y9405D02*
Y19805D01*
X9850Y9405D02*
X14450D01*
Y9405D02*
Y19805D01*
X9850D02*
X14450D01*
X9850Y9405D02*
Y19805D01*
X18415Y54801D02*
X20955D01*
X18415D02*
Y60261D01*
X20955D01*
Y54801D02*
Y60261D01*
X29185Y16803D02*
Y17329D01*
X22885Y14929D02*
Y15455D01*
X29185Y14929D02*
Y15455D01*
X22885Y16803D02*
Y17329D01*
X29185D01*
X22885Y14929D02*
X29185D01*
X20517Y11405D02*
X21043D01*
X22391Y5105D02*
X22917D01*
X22391Y11405D02*
X22917D01*
X20517Y5105D02*
X21043D01*
X20517D02*
Y11405D01*
X22917Y5105D02*
Y11405D01*
X29153Y11278D02*
X29679D01*
X31027Y4978D02*
X31553D01*
X31027Y11278D02*
X31553D01*
X29153Y4978D02*
X29679D01*
X29153D02*
Y11278D01*
X31553Y4978D02*
Y11278D01*
X46863Y12509D02*
X49403D01*
Y7049D02*
Y12509D01*
X46863Y7049D02*
X49403D01*
X46863D02*
Y12509D01*
Y19494D02*
X49403D01*
Y14034D02*
Y19494D01*
X46863Y14034D02*
X49403D01*
X46863D02*
Y19494D01*
Y26606D02*
X49403D01*
Y21146D02*
Y26606D01*
X46863Y21146D02*
X49403D01*
X46863D02*
Y26606D01*
X18542Y37021D02*
X21082D01*
X18542D02*
Y42481D01*
X21082D01*
Y37021D02*
Y42481D01*
X18415Y45657D02*
X20955D01*
X18415D02*
Y51117D01*
X20955D01*
Y45657D02*
Y51117D01*
X12167Y50458D02*
Y50984D01*
X5867Y48584D02*
Y49110D01*
X12167Y48584D02*
Y49110D01*
X5867Y50458D02*
Y50984D01*
X12167D01*
X5867Y48584D02*
X12167D01*
X12421Y41695D02*
Y42221D01*
X6121Y39821D02*
Y40347D01*
X12421Y39821D02*
Y40347D01*
X6121Y41695D02*
Y42221D01*
X12421D01*
X6121Y39821D02*
X12421D01*
Y33186D02*
Y33712D01*
X6121Y31312D02*
Y31838D01*
X12421Y31312D02*
Y31838D01*
X6121Y33186D02*
Y33712D01*
X12421D01*
X6121Y31312D02*
X12421D01*
X42588Y46792D02*
X54988D01*
Y35292D02*
Y46792D01*
X54985Y35292D02*
X54988D01*
X42588D02*
X54988D01*
X42588D02*
Y46792D01*
X42421Y63810D02*
X54821D01*
Y52310D02*
Y63810D01*
X54818Y52310D02*
X54821D01*
X42421D02*
X54821D01*
X42421D02*
Y63810D01*
D11*
X27938Y56291D02*
G03*
X27938Y56291I-125J0D01*
G01*
X13925Y10055D02*
G03*
X13925Y10055I-125J0D01*
G01*
X52663Y34642D02*
G03*
X52663Y34642I-125J0D01*
G01*
X52496Y51660D02*
G03*
X52496Y51660I-125J0D01*
G01*
D12*
X30273Y54881D02*
G03*
X30273Y54881I-300J0D01*
G01*
D13*
X29211Y57531D02*
Y59055D01*
X29719Y58547D01*
X30227Y59055D01*
Y57531D01*
X31750Y59055D02*
X30734D01*
Y57531D01*
X31750D01*
X30734Y58293D02*
X31242D01*
X33274Y58801D02*
X33020Y59055D01*
X32512D01*
X32258Y58801D01*
Y57785D01*
X32512Y57531D01*
X33020D01*
X33274Y57785D01*
Y58293D01*
X32766D01*
X33781Y57531D02*
Y58547D01*
X34289Y59055D01*
X34797Y58547D01*
Y57531D01*
Y58293D01*
X33781D01*
X23965Y64452D02*
X25488D01*
Y63691D01*
X25234Y63437D01*
X24727D01*
X24473Y63691D01*
Y64452D01*
Y63945D02*
X23965Y63437D01*
X23711Y62929D02*
Y61913D01*
X24981Y61405D02*
X23965D01*
X24473D01*
X24727Y61152D01*
X24981Y60898D01*
Y60644D01*
X23965Y59120D02*
Y59628D01*
X24219Y59882D01*
X24727D01*
X24981Y59628D01*
Y59120D01*
X24727Y58866D01*
X24473D01*
Y59882D01*
X23965Y58358D02*
Y57597D01*
X24219Y57343D01*
X24473Y57597D01*
Y58105D01*
X24727Y58358D01*
X24981Y58105D01*
Y57343D01*
X23965Y56073D02*
Y56581D01*
X24219Y56835D01*
X24727D01*
X24981Y56581D01*
Y56073D01*
X24727Y55819D01*
X24473D01*
Y56835D01*
X25234Y55058D02*
X24981D01*
Y55311D01*
Y54804D01*
Y55058D01*
X24219D01*
X23965Y54804D01*
X3810Y20828D02*
X4064Y20574D01*
X4572D01*
X4826Y20828D01*
Y21082D01*
X4572Y21336D01*
X4064D01*
X3810Y21590D01*
Y21844D01*
X4064Y22098D01*
X4572D01*
X4826Y21844D01*
X53856Y32373D02*
X54110Y32119D01*
X54617D01*
X54871Y32373D01*
Y32627D01*
X54617Y32881D01*
X54110D01*
X53856Y33134D01*
Y33388D01*
X54110Y33642D01*
X54617D01*
X54871Y33388D01*
X52332Y32373D02*
X52586Y32119D01*
X53094D01*
X53348Y32373D01*
Y33388D01*
X53094Y33642D01*
X52586D01*
X52332Y33388D01*
X51824Y33642D02*
Y32119D01*
X51063D01*
X50809Y32373D01*
Y32881D01*
X51063Y33134D01*
X51824D01*
X51316D02*
X50809Y33642D01*
X14223Y6223D02*
Y7239D01*
Y6731D01*
X13969Y6477D01*
X13716Y6223D01*
X13462D01*
X11938Y7239D02*
X12446D01*
X12700Y6985D01*
Y6477D01*
X12446Y6223D01*
X11938D01*
X11684Y6477D01*
Y6731D01*
X12700D01*
X10668Y7747D02*
X10415D01*
X10161Y7493D01*
Y6223D01*
X10922D01*
X11176Y6477D01*
Y6985D01*
X10922Y7239D01*
X10161D01*
X15329Y33591D02*
X16852D01*
Y32830D01*
X16598Y32576D01*
X16091D01*
X15837Y32830D01*
Y33591D01*
Y33084D02*
X15329Y32576D01*
X16598Y32068D02*
X16852Y31814D01*
Y31306D01*
X16598Y31052D01*
X16345D01*
X16091Y31306D01*
Y31560D01*
Y31306D01*
X15837Y31052D01*
X15583D01*
X15329Y31306D01*
Y31814D01*
X15583Y32068D01*
X15329Y42100D02*
X16852D01*
Y41339D01*
X16598Y41085D01*
X16091D01*
X15837Y41339D01*
Y42100D01*
Y41593D02*
X15329Y41085D01*
Y39561D02*
Y40577D01*
X16345Y39561D01*
X16598D01*
X16852Y39815D01*
Y40323D01*
X16598Y40577D01*
X15075Y50863D02*
X16598D01*
Y50102D01*
X16344Y49848D01*
X15837D01*
X15583Y50102D01*
Y50863D01*
Y50356D02*
X15075Y49848D01*
Y49340D02*
Y48832D01*
Y49086D01*
X16598D01*
X16344Y49340D01*
X15202Y60134D02*
X16725D01*
Y59373D01*
X16471Y59119D01*
X15964D01*
X15710Y59373D01*
Y60134D01*
Y59627D02*
X15202Y59119D01*
X16471Y58611D02*
X16725Y58357D01*
Y57849D01*
X16471Y57595D01*
X15456D01*
X15202Y57849D01*
Y58357D01*
X15456Y58611D01*
X16471D01*
X21196Y26987D02*
Y25464D01*
X20435D01*
X20181Y25718D01*
Y26226D01*
X20435Y26480D01*
X21196D01*
X19673Y25718D02*
X19419Y25464D01*
X18911D01*
X18657Y25718D01*
Y25972D01*
X18911Y26226D01*
X19165D01*
X18911D01*
X18657Y26480D01*
Y26734D01*
X18911Y26987D01*
X19419D01*
X19673Y26734D01*
X21069Y36005D02*
Y34481D01*
X20308D01*
X20054Y34735D01*
Y35243D01*
X20308Y35497D01*
X21069D01*
X18530Y36005D02*
X19546D01*
X18530Y34989D01*
Y34735D01*
X18784Y34481D01*
X19292D01*
X19546Y34735D01*
X20942Y44640D02*
Y43117D01*
X20181D01*
X19927Y43371D01*
Y43879D01*
X20181Y44133D01*
X20942D01*
X19419Y44640D02*
X18911D01*
X19165D01*
Y43117D01*
X19419Y43371D01*
X20942Y53785D02*
Y52261D01*
X20181D01*
X19927Y52515D01*
Y53023D01*
X20181Y53277D01*
X20942D01*
X19419Y52515D02*
X19165Y52261D01*
X18657D01*
X18403Y52515D01*
Y53531D01*
X18657Y53785D01*
X19165D01*
X19419Y53531D01*
Y52515D01*
X50292Y9017D02*
Y8002D01*
X51816D01*
Y9017D01*
X51054Y8002D02*
Y8509D01*
X51816Y9525D02*
Y10033D01*
Y9779D01*
X50292D01*
X50546Y9525D01*
X51816Y11810D02*
Y10795D01*
X50800Y11810D01*
X50546D01*
X50292Y11556D01*
Y11049D01*
X50546Y10795D01*
X50419Y15875D02*
Y14860D01*
X51943D01*
Y15875D01*
X51181Y14860D02*
Y15367D01*
X50673Y16383D02*
X50419Y16637D01*
Y17145D01*
X50673Y17399D01*
X50927D01*
X51181Y17145D01*
Y16891D01*
Y17145D01*
X51435Y17399D01*
X51689D01*
X51943Y17145D01*
Y16637D01*
X51689Y16383D01*
X51943Y18668D02*
X50419D01*
X51181Y17907D01*
Y18922D01*
X50546Y22987D02*
Y21972D01*
X52070D01*
Y22987D01*
X51308Y21972D02*
Y22479D01*
X50546Y24511D02*
Y23495D01*
X51308D01*
X51054Y24003D01*
Y24257D01*
X51308Y24511D01*
X51816D01*
X52070Y24257D01*
Y23749D01*
X51816Y23495D01*
X50546Y26034D02*
X50800Y25527D01*
X51308Y25019D01*
X51816D01*
X52070Y25273D01*
Y25780D01*
X51816Y26034D01*
X51562D01*
X51308Y25780D01*
Y25019D01*
X33655Y17526D02*
Y18287D01*
X33401Y18541D01*
X32893D01*
X32639Y18287D01*
Y17526D01*
X33655Y17018D02*
X32639D01*
X33147D01*
X33401Y16764D01*
X33655Y16510D01*
Y16256D01*
Y15494D02*
X32893D01*
X32639Y15240D01*
Y14479D01*
X32385D01*
X32131Y14733D01*
Y14986D01*
X32639Y14479D02*
X33655D01*
X4699Y10795D02*
Y12319D01*
X3937D01*
X3683Y12065D01*
Y11811D01*
X3937Y11557D01*
X4699D01*
X3937D01*
X3683Y11303D01*
Y11049D01*
X3937Y10795D01*
X4699D01*
X54704Y50660D02*
Y49645D01*
X54196Y49137D01*
X53689Y49645D01*
Y50660D01*
Y49899D01*
X54704D01*
X52165Y49391D02*
X52419Y49137D01*
X52927D01*
X53181Y49391D01*
Y50406D01*
X52927Y50660D01*
X52419D01*
X52165Y50406D01*
X50642Y49391D02*
X50896Y49137D01*
X51403D01*
X51657Y49391D01*
Y50406D01*
X51403Y50660D01*
X50896D01*
X50642Y50406D01*
X15621Y26796D02*
Y26288D01*
Y26542D01*
X17145D01*
X16891Y26796D01*
Y25526D02*
X17145Y25272D01*
Y24765D01*
X16891Y24511D01*
X15875D01*
X15621Y24765D01*
Y25272D01*
X15875Y25526D01*
X16891D01*
Y24003D02*
X17145Y23749D01*
Y23241D01*
X16891Y22987D01*
X15875D01*
X15621Y23241D01*
Y23749D01*
X15875Y24003D01*
X16891D01*
X15113Y22479D02*
X16637D01*
Y21718D01*
X16383Y21464D01*
X15875D01*
X15621Y21718D01*
Y22479D01*
X17145Y19940D02*
Y20956D01*
X16383D01*
Y20448D01*
Y20956D01*
X15621D01*
X17907Y10540D02*
Y11556D01*
X18923Y10540D01*
X19177D01*
X19431Y10794D01*
Y11302D01*
X19177Y11556D01*
X17907Y9017D02*
Y10032D01*
X18923Y9017D01*
X19177D01*
X19431Y9271D01*
Y9778D01*
X19177Y10032D01*
X17399Y8509D02*
X18923D01*
Y7747D01*
X18669Y7493D01*
X18161D01*
X17907Y7747D01*
Y8509D01*
X19431Y5970D02*
Y6985D01*
X18669D01*
Y6478D01*
Y6985D01*
X17907D01*
Y5462D02*
Y4954D01*
Y5208D01*
X19431D01*
X19177Y5462D01*
X33147Y10032D02*
Y11048D01*
X34163Y10032D01*
X34417D01*
X34671Y10286D01*
Y10794D01*
X34417Y11048D01*
X33147Y8509D02*
Y9524D01*
X34163Y8509D01*
X34417D01*
X34671Y8763D01*
Y9270D01*
X34417Y9524D01*
X32639Y8001D02*
X34163D01*
Y7239D01*
X33909Y6985D01*
X33401D01*
X33147Y7239D01*
Y8001D01*
X34671Y5462D02*
Y6477D01*
X33909D01*
Y5969D01*
Y6477D01*
X33147D01*
X34417Y4954D02*
X34671Y4700D01*
Y4192D01*
X34417Y3938D01*
X33401D01*
X33147Y4192D01*
Y4700D01*
X33401Y4954D01*
X34417D01*
M02*
