G04*
G04 #@! TF.GenerationSoftware,Altium Limited,Altium Designer,22.1.2 (22)*
G04*
G04 Layer_Color=128*
%FSLAX43Y43*%
%MOMM*%
G71*
G04*
G04 #@! TF.SameCoordinates,C0918504-A1FE-4B7F-BD87-C0AB04C77FA1*
G04*
G04*
G04 #@! TF.FilePolarity,Positive*
G04*
G01*
G75*
%ADD39C,0.051*%
D39*
X19429Y32004D02*
X20449D01*
X19939Y31494D02*
Y32514D01*
X19429Y29464D02*
X20449D01*
X19939Y28954D02*
Y29974D01*
X27363Y54991D02*
X28263D01*
X27813Y54541D02*
Y55441D01*
X27363Y52451D02*
X28263D01*
X27813Y52001D02*
Y52901D01*
X27363Y49911D02*
X28263D01*
X27813Y49461D02*
Y50361D01*
X27363Y47371D02*
X28263D01*
X27813Y46921D02*
Y47821D01*
X27363Y44831D02*
X28263D01*
X27813Y44381D02*
Y45281D01*
X27363Y42291D02*
X28263D01*
X27813Y41841D02*
Y42741D01*
X27363Y39751D02*
X28263D01*
X27813Y39301D02*
Y40201D01*
X27363Y37211D02*
X28263D01*
X27813Y36761D02*
Y37661D01*
X27363Y34671D02*
X28263D01*
X27813Y34221D02*
Y35121D01*
X27363Y32131D02*
X28263D01*
X27813Y31681D02*
Y32581D01*
X27363Y29591D02*
X28263D01*
X27813Y29141D02*
Y30041D01*
X27363Y27051D02*
X28263D01*
X27813Y26601D02*
Y27501D01*
X27363Y24511D02*
X28263D01*
X27813Y24061D02*
Y24961D01*
X27363Y21971D02*
X28263D01*
X27813Y21521D02*
Y22421D01*
X34983Y54991D02*
X35883D01*
X35433Y54541D02*
Y55441D01*
X34983Y52451D02*
X35883D01*
X35433Y52001D02*
Y52901D01*
X34983Y49911D02*
X35883D01*
X35433Y49461D02*
Y50361D01*
X34983Y47371D02*
X35883D01*
X35433Y46921D02*
Y47821D01*
X34983Y44831D02*
X35883D01*
X35433Y44381D02*
Y45281D01*
X34983Y42291D02*
X35883D01*
X35433Y41841D02*
Y42741D01*
X34983Y39751D02*
X35883D01*
X35433Y39301D02*
Y40201D01*
X34983Y37211D02*
X35883D01*
X35433Y36761D02*
Y37661D01*
X34983Y34671D02*
X35883D01*
X35433Y34221D02*
Y35121D01*
X34983Y32131D02*
X35883D01*
X35433Y31681D02*
Y32581D01*
X34983Y29591D02*
X35883D01*
X35433Y29141D02*
Y30041D01*
X34983Y27051D02*
X35883D01*
X35433Y26601D02*
Y27501D01*
X34983Y24511D02*
X35883D01*
X35433Y24061D02*
Y24961D01*
X34983Y21971D02*
X35883D01*
X35433Y21521D02*
Y22421D01*
X12728Y63373D02*
X13578D01*
X13153Y62948D02*
Y63798D01*
X21728Y63373D02*
X22578D01*
X22153Y62948D02*
Y63798D01*
X3681Y17780D02*
X4701D01*
X4191Y17270D02*
Y18290D01*
X3681Y15240D02*
X4701D01*
X4191Y14730D02*
Y15750D01*
X3808Y8128D02*
X4828D01*
X4318Y7618D02*
Y8638D01*
X3808Y5588D02*
X4828D01*
X4318Y5078D02*
Y6098D01*
X4346Y24765D02*
X5196D01*
X4771Y24340D02*
Y25190D01*
X13346Y24765D02*
X14196D01*
X13771Y24340D02*
Y25190D01*
X13219Y59055D02*
X14069D01*
X13644Y58630D02*
Y59480D01*
X4219Y59055D02*
X5069D01*
X4644Y58630D02*
Y59480D01*
X12150Y17145D02*
X13250D01*
X12700Y16595D02*
Y17695D01*
X12150Y14605D02*
X13250D01*
X12700Y14055D02*
Y15155D01*
X12150Y12065D02*
X13250D01*
X12700Y11515D02*
Y12615D01*
X19175Y58801D02*
X20195D01*
X19685Y58291D02*
Y59311D01*
X19175Y56261D02*
X20195D01*
X19685Y55751D02*
Y56771D01*
X30110Y16129D02*
X30960D01*
X30535Y15704D02*
Y16554D01*
X21110Y16129D02*
X21960D01*
X21535Y15704D02*
Y16554D01*
X21292Y12755D02*
X22142D01*
X21717Y12330D02*
Y13180D01*
X21292Y3755D02*
X22142D01*
X21717Y3330D02*
Y4180D01*
X29928Y12628D02*
X30778D01*
X30353Y12203D02*
Y13053D01*
X29928Y3628D02*
X30778D01*
X30353Y3203D02*
Y4053D01*
X47623Y8509D02*
X48643D01*
X48133Y7999D02*
Y9019D01*
X47623Y11049D02*
X48643D01*
X48133Y10539D02*
Y11559D01*
X47623Y15494D02*
X48643D01*
X48133Y14984D02*
Y16004D01*
X47623Y18034D02*
X48643D01*
X48133Y17524D02*
Y18544D01*
X47623Y22606D02*
X48643D01*
X48133Y22096D02*
Y23116D01*
X47623Y25146D02*
X48643D01*
X48133Y24636D02*
Y25656D01*
X19302Y41021D02*
X20322D01*
X19812Y40511D02*
Y41531D01*
X19302Y38481D02*
X20322D01*
X19812Y37971D02*
Y38991D01*
X19175Y49657D02*
X20195D01*
X19685Y49147D02*
Y50167D01*
X19175Y47117D02*
X20195D01*
X19685Y46607D02*
Y47627D01*
X13092Y49784D02*
X13942D01*
X13517Y49359D02*
Y50209D01*
X4092Y49784D02*
X4942D01*
X4517Y49359D02*
Y50209D01*
X13346Y41021D02*
X14196D01*
X13771Y40596D02*
Y41446D01*
X4346Y41021D02*
X5196D01*
X4771Y40596D02*
Y41446D01*
X13346Y32512D02*
X14196D01*
X13771Y32087D02*
Y32937D01*
X4346Y32512D02*
X5196D01*
X4771Y32087D02*
Y32937D01*
X47088Y37592D02*
X47988D01*
X47538Y37142D02*
Y38042D01*
X52088Y37592D02*
X52988D01*
X52538Y37142D02*
Y38042D01*
X49588Y37592D02*
X50488D01*
X50038Y37142D02*
Y38042D01*
X44588Y37592D02*
X45488D01*
X45038Y37142D02*
Y38042D01*
X46921Y54610D02*
X47821D01*
X47371Y54160D02*
Y55060D01*
X51921Y54610D02*
X52821D01*
X52371Y54160D02*
Y55060D01*
X49421Y54610D02*
X50321D01*
X49871Y54160D02*
Y55060D01*
X44421Y54610D02*
X45321D01*
X44871Y54160D02*
Y55060D01*
M02*
